<?xml version="1.0" encoding="UTF-8" standalone="no"?>
<!-- Created with Inkscape (http://www.inkscape.org/) -->

<svg
   width="270.27802mm"
   height="72.733002mm"
   viewBox="0 0 270.27801 72.733002"
   version="1.1"
   id="svg1"
   xml:space="preserve"
   inkscape:version="1.3.2 (091e20e, 2023-11-25, custom)"
   sodipodi:docname="pinkarium_logo.svg"
   xmlns:inkscape="http://www.inkscape.org/namespaces/inkscape"
   xmlns:sodipodi="http://sodipodi.sourceforge.net/DTD/sodipodi-0.dtd"
   xmlns="http://www.w3.org/2000/svg"
   xmlns:svg="http://www.w3.org/2000/svg"
   xmlns:rdf="http://www.w3.org/1999/02/22-rdf-syntax-ns#"
   xmlns:cc="http://creativecommons.org/ns#"
   xmlns:dc="http://purl.org/dc/elements/1.1/"><title
     id="title25">PINKARIUM Logo</title><sodipodi:namedview
     id="namedview1"
     pagecolor="#505050"
     bordercolor="#eeeeee"
     borderopacity="1"
     inkscape:showpageshadow="0"
     inkscape:pageopacity="0"
     inkscape:pagecheckerboard="0"
     inkscape:deskcolor="#505050"
     inkscape:document-units="mm"
     inkscape:zoom="0.53050295"
     inkscape:cx="796.41405"
     inkscape:cy="-193.21288"
     inkscape:window-width="3440"
     inkscape:window-height="1369"
     inkscape:window-x="1042"
     inkscape:window-y="-8"
     inkscape:window-maximized="1"
     inkscape:current-layer="layer1" /><defs
     id="defs1" /><g
     inkscape:label="Calque 1"
     inkscape:groupmode="layer"
     id="layer1"
     transform="translate(63.7262,-194.9653)"><g
       id="g25"
       transform="translate(2.6458334,2.6458334)"><path
         style="fill:#fc5daa"
         d="m -58.12585,262.45769 c 0.0485,-0.13248 3.33264,-3.5237 7.29809,-7.53606 l 7.20989,-7.2952 v -10.84802 -10.84803 l 1.28059,-0.64892 c 2.55575,-1.29509 4.11514,-3.8729 4.0984,-6.775 -0.026,-4.50416 -3.51348,-7.62641 -8.19529,-7.33699 -2.22466,0.13753 -3.75644,0.90392 -5.21691,2.61015 -2.89253,3.37927 -2.07232,8.79943 1.68503,11.13513 l 1.3211,0.82123 v 10.0889 10.08889 l -5.63646,5.61427 -5.63646,5.61426 h -1.90417 -1.90416 v -28.30202 -28.30202 l 3.0784,-0.0745 3.0784,-0.0745 -0.0508,-2.71198 -0.0508,-2.71198 h 25.81198 25.81198 v 2.77813 2.77812 h 3.04271 3.04271 v 28.31042 28.31041 h -3.04271 -3.04271 v 2.77813 2.77812 h -7.80521 -7.80521 v -6.15652 -6.15653 l 2.63301,-2.62313 2.63301,-2.62312 1.35592,0.31298 c 5.24924,1.21167 9.63477,-1.66563 9.98428,-6.55058 0.18311,-2.55916 -0.42757,-4.24438 -2.16917,-5.98598 -3.65473,-3.65473 -9.97095,-2.68601 -12.20059,1.87121 -0.6388,1.30566 -0.69365,1.66154 -0.60933,3.95387 l 0.0927,2.51906 -3.50573,3.51302 -3.50572,3.51303 v 7.20634 7.20635 h -3.04271 -3.04271 l 0.006,-11.97239 0.006,-11.9724 6.34402,-6.39613 6.34401,-6.39613 v -4.77013 -4.77014 l 1.25677,-0.55573 c 2.60304,-1.15104 4.05269,-3.27035 4.24068,-6.19962 0.13426,-2.09217 -0.30921,-3.51216 -1.64302,-5.26087 -1.71848,-2.25305 -5.86928,-3.20501 -8.92761,-2.04748 -4.0077,1.51683 -5.86811,5.83966 -4.19102,9.73818 0.64753,1.50521 2.47911,3.38773 3.56002,3.65902 l 0.6771,0.16994 v 4.14057 4.14057 l -6.35,6.34587 -6.35,6.34586 v 12.90051 12.9005 h -10.07622 c -5.94415,0 -10.04004,-0.0988 -9.98802,-0.24086 z m 43.76796,-22.7977 c -1.29759,-1.5421 -0.59161,-3.74344 1.31527,-4.10117 2.60553,-0.4888 4.32324,2.33661 2.51802,4.14183 -0.62504,0.62504 -1.00118,0.77339 -1.96085,0.77339 -1.00117,0 -1.29492,-0.12771 -1.87244,-0.81405 z m -32.75905,-18.91345 c -0.8858,-0.48071 -1.26343,-1.14825 -1.26343,-2.2334 0,-1.10715 0.3854,-1.76415 1.31762,-2.24622 1.40181,-0.72491 2.93712,-0.31444 3.59702,0.96167 0.75123,1.45272 0.37949,2.84813 -0.94059,3.53077 -0.96102,0.49696 -1.77837,0.49309 -2.71062,-0.0128 z m 23.07824,-9.45421 c -1.5164,-0.76611 -1.50648,-3.5092 0.0155,-4.29627 1.92933,-0.99769 3.9532,0.15354 3.9532,2.24868 0,2.00639 -2.0039,3.04026 -3.96875,2.04759 z"
         id="path22"
         sodipodi:nodetypes="cscccssssscccccccccccccccccccccccccccccccssssccccccccccccccsssssscccccccsccsssssssssssscsscc" /><text
         xml:space="preserve"
         style="font-size:26.0387px;line-height:42.7767px;font-family:Arial;-inkscape-font-specification:'Arial, Normal';letter-spacing:0px;word-spacing:0px;fill:#ffc2d5;fill-opacity:0.992157;fill-rule:evenodd;stroke-width:0.0396391"
         x="12.3655"
         y="215.90401"
         id="text25"
         transform="scale(0.8966277,1.1152901)"><tspan
           sodipodi:role="line"
           id="tspan25"
           x="12.3655"
           y="215.90401"
           style="font-style:normal;font-variant:normal;font-weight:normal;font-stretch:normal;font-size:26.0387px;line-height:42.7767px;font-family:OPTICopperplate;-inkscape-font-specification:'OPTICopperplate, Normal';font-variant-ligatures:normal;font-variant-caps:normal;font-variant-numeric:normal;font-variant-east-asian:normal;fill:#ffc2d5;fill-opacity:0.992157;stroke-width:0.039639">PINKARIUM</tspan></text></g></g><metadata
     id="metadata25"><rdf:RDF><cc:Work
         rdf:about=""><dc:title>PINKARIUM Logo</dc:title></cc:Work></rdf:RDF></metadata></svg>
